<svg width="1064" height="261" viewBox="0 0 1064 261" fill="none" xmlns="http://www.w3.org/2000/svg">
<path d="M130.563 0.477783C58.6952 0.477783 0.437744 58.7496 0.437744 130.634C0.437744 202.501 58.6952 260.79 130.563 260.79C196.21 260.79 250.504 212.19 259.438 149.009C260.53 150.577 261.751 152.072 263.125 153.447C269.203 159.525 277.309 162.884 285.906 162.884C302.98 162.884 316.969 149.55 318.063 132.759L318.031 132.697L335.344 142.759L335.469 142.728C330.042 165.156 309.821 181.822 285.719 181.822C276.681 181.822 268.225 179.458 260.844 175.353C260.033 177.714 259.152 180.031 258.219 182.322C266.581 186.788 275.968 189.197 285.719 189.197C313.275 189.197 336.438 170.099 342.656 144.447L342.563 144.353L363.188 130.478L363.219 130.384C363.095 87.6938 328.445 53.134 285.719 53.134C242.924 53.134 208.156 87.8205 208.156 130.634C208.156 173.43 173.376 208.134 130.563 208.134C87.7661 208.134 53.0627 173.43 53.0627 130.634L34.8752 118.509C40.8362 70.9656 81.42 34.1965 130.563 34.1965C147.494 34.1965 163.375 38.5636 177.188 46.2278V46.1653C178.72 44.192 180.331 42.2692 181.969 40.384C166.817 31.7332 149.256 26.8215 130.563 26.8215C77.8644 26.8215 34.3517 66.0812 27.6565 116.947L27.6252 116.884L7.81274 126.915L7.87524 126.822C9.90214 60.8041 64.0513 7.88403 130.563 7.88403C154.506 7.88403 176.832 14.7141 195.719 26.5715L195.688 26.6653C197.679 24.9387 199.701 23.2998 201.781 21.6965L201.75 21.6653C181.294 8.29265 156.832 0.477783 130.563 0.477783ZM285.75 0.509033C237.51 0.509023 195.482 26.7551 173 65.7278L172.938 65.759C160.764 57.7954 146.223 53.1653 130.594 53.1653C87.7805 53.1653 53.094 87.8694 53.094 130.665L73.6252 144.353V144.384C79.8086 170.107 102.968 189.228 130.594 189.228C162.925 189.228 189.156 163.013 189.156 130.665H189.219C189.219 77.4038 232.488 34.2278 285.75 34.2278C334.853 34.2278 375.415 70.964 381.406 118.447L381.375 118.509L363.219 130.634L363.25 130.665C363.25 173.461 328.547 208.165 285.75 208.165C272.765 208.165 260.529 204.96 249.781 199.322C240.761 214.949 228.75 228.626 214.531 239.603C235.005 252.993 259.463 260.822 285.75 260.822C357.618 260.822 415.906 202.55 415.906 130.665C415.907 58.7984 357.618 0.509033 285.75 0.509033ZM285.75 7.91528C352.824 7.91527 407.337 61.6851 408.5 128.478L408.438 128.54L388.719 117.197C382.113 66.2255 338.518 26.8215 285.75 26.8215C228.401 26.8215 181.844 73.3339 181.844 130.665C181.844 158.926 158.854 181.853 130.594 181.853C106.51 181.853 86.3059 165.215 80.844 142.822L80.969 142.79L98.5315 132.665L98.594 132.728C99.0873 140.551 102.366 147.844 107.969 153.447C114.048 159.543 122.152 162.915 130.75 162.915C148.562 162.915 163 148.478 163 130.665C163 62.8684 217.953 7.91528 285.75 7.91528ZM285.906 105.79C299.632 105.79 310.75 116.909 310.75 130.634C310.75 144.359 299.632 155.478 285.906 155.478C272.182 155.478 261.063 144.359 261.063 130.634C261.063 116.909 272.182 105.79 285.906 105.79ZM130.75 105.822C144.475 105.822 155.625 116.94 155.625 130.665C155.625 144.39 144.475 155.509 130.75 155.509C117.025 155.509 105.906 144.39 105.906 130.665C105.906 116.94 117.025 105.822 130.75 105.822Z" fill="white"/>
<path d="M609.35 225.642H549.905L519.723 154.991H519.231L504.343 225.642H456.596L495.305 41.9492H566.678C602.991 41.9492 626.864 59.2508 618.601 98.4702C613.262 123.806 594.516 145.741 567.471 150.357L609.35 225.642ZM525.697 124.299H530.331C545.923 124.299 564.07 121.374 568.282 101.395C572.492 81.4152 555.578 78.4905 539.985 78.4905H535.352L525.697 124.299Z" fill="white"/>
<path d="M712.737 41.9492H780.464C831.629 41.9492 865.297 82.1552 854.409 133.796C843.52 185.454 792.673 225.642 741.755 225.642H674.028L712.737 41.9492ZM730.302 185.207H741.015C769.522 185.207 797.166 169.615 804.707 133.796C811.649 100.902 793.871 82.4019 763.162 82.4019H751.957L730.302 185.207Z" fill="white"/>
<path d="M1036.6 89.2202C1029.38 81.9085 1019.2 77.0281 1007.5 77.0281C998.725 77.0281 985.952 82.1551 983.802 92.374C981.547 103.104 993.58 107.244 1001.3 109.922L1012.71 113.569C1036.69 121.128 1053.71 134.042 1047.44 163.765C1043.6 182.036 1035.27 200.8 1018.02 213.221C1001.09 225.396 980.754 230.523 962.237 230.523C939.103 230.523 918.084 222.717 902.103 209.574L930.681 171.077C940.407 181.542 952.74 190.07 969.055 190.07C980.26 190.07 993.387 184.467 996.117 171.553C998.936 158.162 981.141 153.529 971.54 150.604C943.367 142.077 925.273 134.289 932.76 98.7168C940.618 61.4355 972.315 37.0864 1009.1 37.0864C1027.62 37.0864 1049.04 42.9182 1063.42 52.1857L1036.6 89.2202Z" fill="white"/>
<path d="M877.385 111.332L911.089 110.609L899.69 161.739H867.589L877.385 111.332Z" fill="white"/>
<path d="M637.347 111.332L671.053 110.609L659.671 161.739H627.551L637.347 111.332Z" fill="white"/>
</svg>
