<svg width="436" height="261" viewBox="0 0 436 261" fill="none" xmlns="http://www.w3.org/2000/svg">
<path d="M136.421 0C61.0764 0 0 58.2718 0 130.156C0 202.023 61.0764 260.312 136.421 260.312C205.245 260.312 262.167 211.712 271.532 148.531C272.677 150.099 273.957 151.594 275.398 152.969C281.77 159.047 290.268 162.406 299.282 162.406C317.181 162.406 331.847 149.072 332.994 132.281L332.961 132.219L351.111 142.281L351.242 142.25C345.553 164.679 324.354 181.344 299.085 181.344C289.61 181.344 280.745 178.98 273.007 174.875C272.157 177.236 271.233 179.553 270.255 181.844C279.021 186.311 288.862 188.719 299.085 188.719C327.974 188.719 352.258 169.622 358.778 143.969L358.679 143.875L380.302 130L380.335 129.906C380.205 87.216 343.879 52.6562 299.085 52.6562C254.219 52.6562 217.77 87.3427 217.77 130.156C217.77 172.952 181.307 207.656 136.421 207.656C91.554 207.656 55.1714 172.952 55.1714 130.156L36.1038 118.031C42.3532 70.4878 84.9007 33.7188 136.421 33.7188C154.172 33.7188 170.821 38.0858 185.302 45.75V45.6875C186.909 43.7142 188.598 41.7915 190.315 39.9062C174.43 31.2555 156.019 26.3438 136.421 26.3438C81.1732 26.3438 35.555 65.6035 28.5358 116.469L28.503 116.406L7.73186 126.438L7.79738 126.344C9.92236 60.3263 66.6917 7.40625 136.421 7.40625C161.523 7.40625 184.929 14.2363 204.73 26.0938L204.698 26.1875C206.786 24.4609 208.905 22.822 211.086 21.2188L211.053 21.1875C189.608 7.81487 163.961 0 136.421 0ZM299.118 0.03125C248.544 0.03124 204.482 26.2773 180.912 65.25L180.847 65.2812C168.084 57.3176 152.839 52.6875 136.454 52.6875C91.569 52.6875 55.2041 87.3916 55.2041 130.188L76.7288 143.875V143.906C83.2114 169.63 107.491 188.75 136.454 188.75C170.35 188.75 197.85 162.536 197.85 130.188H197.916C197.916 76.926 243.279 33.75 299.118 33.75C350.597 33.75 393.121 70.4863 399.403 117.969L399.37 118.031L380.335 130.156L380.368 130.188C380.368 172.983 343.985 207.688 299.118 207.688C285.504 207.687 272.676 204.482 261.409 198.844C251.951 214.472 239.36 228.149 224.453 239.125C245.917 252.515 271.559 260.344 299.118 260.344C374.463 260.344 435.572 202.072 435.572 130.188C435.572 58.3207 374.463 0.03125 299.118 0.03125ZM299.118 7.4375C369.437 7.43749 426.588 61.2074 427.807 128L427.742 128.062L407.069 116.719C400.143 65.7477 354.439 26.3438 299.118 26.3438C238.993 26.3438 190.184 72.8561 190.184 130.188C190.184 158.448 166.082 181.375 136.454 181.375C111.205 181.375 90.0231 164.737 84.2969 142.344L84.4279 142.312L102.84 132.188L102.906 132.25C103.423 140.073 106.86 147.366 112.734 152.969C119.108 159.065 127.604 162.438 136.618 162.438C155.292 162.438 170.428 148 170.428 130.188C170.428 62.3906 228.041 7.4375 299.118 7.4375ZM299.282 105.312C313.672 105.313 325.328 116.431 325.328 130.156C325.328 143.881 313.672 155 299.282 155C284.893 155 273.236 143.881 273.236 130.156C273.236 116.431 284.893 105.312 299.282 105.312ZM136.618 105.344C151.006 105.344 162.697 116.462 162.697 130.188C162.697 143.913 151.006 155.031 136.618 155.031C122.228 155.031 110.572 143.913 110.572 130.188C110.572 116.462 122.228 105.344 136.618 105.344Z" fill="white"/>
</svg>
